<mxfile host="app.diagrams.net" modified="2023-02-16T15:59:39.850Z" agent="5.0 (Windows)" etag="KqCS_kET67cZigVrxCd3" version="20.8.20" type="github">
  <diagram name="Strona-1" id="HyiAODZjmOsL6SR-6cx-">
    <mxGraphModel dx="1434" dy="739" grid="1" gridSize="10" guides="1" tooltips="1" connect="1" arrows="1" fold="1" page="1" pageScale="1" pageWidth="827" pageHeight="1169" math="0" shadow="0">
      <root>
        <mxCell id="0" />
        <mxCell id="1" parent="0" />
        <mxCell id="O6GNLm9c3PLf1qhPLwX--4" style="edgeStyle=orthogonalEdgeStyle;rounded=0;orthogonalLoop=1;jettySize=auto;html=1;entryX=0.5;entryY=0;entryDx=0;entryDy=0;" edge="1" parent="1" source="O6GNLm9c3PLf1qhPLwX--2" target="O6GNLm9c3PLf1qhPLwX--3">
          <mxGeometry relative="1" as="geometry" />
        </mxCell>
        <mxCell id="O6GNLm9c3PLf1qhPLwX--2" value="Start" style="ellipse;whiteSpace=wrap;html=1;" vertex="1" parent="1">
          <mxGeometry x="354" y="30" width="120" height="80" as="geometry" />
        </mxCell>
        <mxCell id="O6GNLm9c3PLf1qhPLwX--3" value="pobranie a" style="rounded=0;whiteSpace=wrap;html=1;" vertex="1" parent="1">
          <mxGeometry x="354" y="150" width="120" height="60" as="geometry" />
        </mxCell>
        <mxCell id="O6GNLm9c3PLf1qhPLwX--7" value="" style="rhombus;whiteSpace=wrap;html=1;" vertex="1" parent="1">
          <mxGeometry x="374" y="240" width="80" height="80" as="geometry" />
        </mxCell>
      </root>
    </mxGraphModel>
  </diagram>
</mxfile>
